<svg version="1" xmlns="http://www.w3.org/2000/svg" width="666.667" height="666.667" viewBox="0 0 500.000000 500.000000"><path d="M319.9 40.1c-8.2 1.2-16.3 5.9-28.4 16.4-3.3 2.9-7.1 6.1-8.5 7.3-1.4 1.1-19.4 16.1-40 33.2-20.6 17.2-39.5 32.8-42 34.8-2.4 2.1-7.8 6.6-12 10-4.1 3.5-8.4 7.1-9.5 8-1.1 1-7.8 6.4-14.9 12.2-47.9 39-58.5 48.7-60.7 55.8-1.2 4.1-1.1 4.4 1.4 7l2.7 2.7 68 .1c37.4.1 68-.1 68-.5.7-18.9 2.3-25.8 7.8-34.1 5.1-7.5 12-12.5 20.1-14.5 6.9-1.7 3.9-1.6 119.1-3 26.1-.3 47.6-.7 47.7-.9.2-.2-42.6-57.4-88.1-117.6-3.9-5.2-9-10.7-11.2-12.3-5.2-3.6-13.4-5.5-19.5-4.6z"/><path d="M313.5 216.4c-1.5 2.3-1.5 4.2 0 6.6 2.4 3.8 4.7 4.4 15.2 4.6 5.7.1 10.7.5 11 .8.5.4.8 42.4.4 48.3-.1 1-5.3 1.3-22.5 1.3h-22.4l-.6 3.7c-.3 2.1-.9 5.5-1.2 7.7-.3 2.1-.7 4.7-.9 5.6-.2 1-.7 4-1.1 6.7-.3 2.6-.8 5.7-1 6.8-.3 1.1-.7 3.9-1 6.1-.2 2.3-.7 5.2-.9 6.5-.3 1.3-.7 4.1-1 6.4-.8 4.9-5.4 34.1-6 37.5-1 5.3-1.9 12.5-1.7 13.2.1.5-16.7.8-37.3.8-20.6 0-37.5-.2-37.5-.4 0-.6 5.5-24.2 11.5-49.1 7.9-32.8 13.5-57.7 13.1-58.4-.2-.3-51.3-.6-113.6-.6-127.8 0-115.5-.9-115.8 8.2-.2 3.7.3 5.5 2.1 7.7l2.3 2.9 19 .3c10.4.2 30.6.6 44.9.8 14.3.3 26.3.5 26.6.6.4 0 3.7 4.2 7.5 9.2 3.8 5.1 7.3 9.8 7.9 10.4.5.6 6.2 8 12.6 16.5 6.4 8.5 19.8 26.2 29.8 39.4s19.2 25.3 20.4 26.9c1.2 1.6 3.1 4.1 4.3 5.5 1.1 1.4 9.2 12 17.9 23.6 21.1 28 21.6 28.6 24.5 31.8 7.2 8.2 18.1 7.6 26.5-1.3 2.5-2.7 16.4-14 26.4-21.5 2.9-2.2 83.9-64.4 88.6-68.1 2.4-1.8 36.2-27.9 57-43.8 2.2-1.7 16.6-12.8 31.9-24.6 15.3-11.8 31.3-24.1 35.5-27.3 10.9-8.2 14.1-11.9 14.1-16.2 0-8-3.2-11.9-27.3-33.6l-4-3.6h-76.9l-76.9-.1-1.4 2.2z"/></svg>